<mxfile host="app.diagrams.net" modified="2024-05-21T18:41:42.687Z" agent="Mozilla/5.0 (Windows NT 10.0; Win64; x64) AppleWebKit/537.36 (KHTML, like Gecko) Chrome/125.0.0.0 Safari/537.36" etag="OYKyRzHnMUahaHlZ8zT9" version="24.4.4" type="device">
  <diagram name="PÃ¡gina-1" id="WNCk-tXAUjiIxwysK3wz">
    <mxGraphModel dx="1687" dy="918" grid="1" gridSize="10" guides="1" tooltips="1" connect="1" arrows="1" fold="1" page="1" pageScale="1" pageWidth="827" pageHeight="1169" math="0" shadow="0">
      <root>
        <mxCell id="0" />
        <mxCell id="1" parent="0" />
        <mxCell id="LWxqf_P8h6sVEK17yWtF-7" style="edgeStyle=orthogonalEdgeStyle;rounded=0;orthogonalLoop=1;jettySize=auto;html=1;entryX=0.5;entryY=0;entryDx=0;entryDy=0;" edge="1" parent="1" source="LWxqf_P8h6sVEK17yWtF-1" target="LWxqf_P8h6sVEK17yWtF-6">
          <mxGeometry relative="1" as="geometry" />
        </mxCell>
        <mxCell id="LWxqf_P8h6sVEK17yWtF-8" value="&lt;font style=&quot;font-size: 20px;&quot;&gt;Tiene&lt;/font&gt;&lt;div style=&quot;font-size: 20px;&quot;&gt;&lt;font style=&quot;font-size: 20px;&quot;&gt;N:1&lt;/font&gt;&lt;/div&gt;" style="edgeLabel;html=1;align=center;verticalAlign=middle;resizable=0;points=[];" vertex="1" connectable="0" parent="LWxqf_P8h6sVEK17yWtF-7">
          <mxGeometry x="0.1333" relative="1" as="geometry">
            <mxPoint as="offset" />
          </mxGeometry>
        </mxCell>
        <mxCell id="LWxqf_P8h6sVEK17yWtF-1" value="USUARIO" style="rounded=0;whiteSpace=wrap;html=1;" vertex="1" parent="1">
          <mxGeometry x="240" y="80" width="160" height="70" as="geometry" />
        </mxCell>
        <mxCell id="LWxqf_P8h6sVEK17yWtF-11" style="edgeStyle=orthogonalEdgeStyle;rounded=0;orthogonalLoop=1;jettySize=auto;html=1;entryX=0.5;entryY=0;entryDx=0;entryDy=0;" edge="1" parent="1" source="LWxqf_P8h6sVEK17yWtF-3" target="LWxqf_P8h6sVEK17yWtF-5">
          <mxGeometry relative="1" as="geometry" />
        </mxCell>
        <mxCell id="LWxqf_P8h6sVEK17yWtF-13" value="&lt;font style=&quot;font-size: 20px;&quot;&gt;Tiene&lt;/font&gt;&lt;div style=&quot;font-size: 20px;&quot;&gt;&lt;font style=&quot;font-size: 20px;&quot;&gt;1:N&lt;/font&gt;&lt;/div&gt;" style="edgeLabel;html=1;align=center;verticalAlign=middle;resizable=0;points=[];" vertex="1" connectable="0" parent="LWxqf_P8h6sVEK17yWtF-11">
          <mxGeometry x="-0.32" y="-3" relative="1" as="geometry">
            <mxPoint as="offset" />
          </mxGeometry>
        </mxCell>
        <mxCell id="LWxqf_P8h6sVEK17yWtF-3" value="PRODUCTO" style="rounded=0;whiteSpace=wrap;html=1;" vertex="1" parent="1">
          <mxGeometry x="520" y="240" width="125" height="80" as="geometry" />
        </mxCell>
        <mxCell id="LWxqf_P8h6sVEK17yWtF-4" value="CATEGORIA" style="rounded=0;whiteSpace=wrap;html=1;" vertex="1" parent="1">
          <mxGeometry x="520" y="560" width="125" height="80" as="geometry" />
        </mxCell>
        <mxCell id="LWxqf_P8h6sVEK17yWtF-12" style="edgeStyle=orthogonalEdgeStyle;rounded=0;orthogonalLoop=1;jettySize=auto;html=1;entryX=0.5;entryY=0;entryDx=0;entryDy=0;" edge="1" parent="1" source="LWxqf_P8h6sVEK17yWtF-5" target="LWxqf_P8h6sVEK17yWtF-4">
          <mxGeometry relative="1" as="geometry" />
        </mxCell>
        <mxCell id="LWxqf_P8h6sVEK17yWtF-14" value="&lt;font style=&quot;font-size: 20px;&quot;&gt;Tiene&lt;br&gt;1:N&lt;/font&gt;" style="edgeLabel;html=1;align=center;verticalAlign=middle;resizable=0;points=[];" vertex="1" connectable="0" parent="LWxqf_P8h6sVEK17yWtF-12">
          <mxGeometry x="-0.28" y="2" relative="1" as="geometry">
            <mxPoint as="offset" />
          </mxGeometry>
        </mxCell>
        <mxCell id="LWxqf_P8h6sVEK17yWtF-5" value="SUBCATEGORIA" style="rounded=0;whiteSpace=wrap;html=1;" vertex="1" parent="1">
          <mxGeometry x="520" y="410" width="125" height="80" as="geometry" />
        </mxCell>
        <mxCell id="LWxqf_P8h6sVEK17yWtF-9" style="edgeStyle=orthogonalEdgeStyle;rounded=0;orthogonalLoop=1;jettySize=auto;html=1;entryX=0;entryY=0.5;entryDx=0;entryDy=0;" edge="1" parent="1" source="LWxqf_P8h6sVEK17yWtF-6" target="LWxqf_P8h6sVEK17yWtF-3">
          <mxGeometry relative="1" as="geometry" />
        </mxCell>
        <mxCell id="LWxqf_P8h6sVEK17yWtF-10" value="&lt;font style=&quot;font-size: 20px;&quot;&gt;Tiene&lt;/font&gt;&lt;div style=&quot;font-size: 20px;&quot;&gt;&lt;font style=&quot;font-size: 20px;&quot;&gt;N:M&lt;/font&gt;&lt;/div&gt;" style="edgeLabel;html=1;align=center;verticalAlign=middle;resizable=0;points=[];" vertex="1" connectable="0" parent="LWxqf_P8h6sVEK17yWtF-9">
          <mxGeometry x="0.05" y="2" relative="1" as="geometry">
            <mxPoint as="offset" />
          </mxGeometry>
        </mxCell>
        <mxCell id="LWxqf_P8h6sVEK17yWtF-6" value="FACTURA" style="rounded=0;whiteSpace=wrap;html=1;" vertex="1" parent="1">
          <mxGeometry x="240" y="240" width="160" height="80" as="geometry" />
        </mxCell>
      </root>
    </mxGraphModel>
  </diagram>
</mxfile>
